<?xml version="1.0" encoding="iso-8859-1"?>
<!-- Uploaded to: SVG Repo, www.svgrepo.com, Generator: SVG Repo Mixer Tools -->
<svg fill="#000000" height="800px" width="800px" version="1.1" id="Capa_1" xmlns="http://www.w3.org/2000/svg" xmlns:xlink="http://www.w3.org/1999/xlink" 
	 viewBox="0 0 60 60" xml:space="preserve">
<g>
	<path d="M60,30c0-8.511-3.569-16.2-9.281-21.665c-0.003-0.004-0.005-0.008-0.008-0.012l-0.1-0.11
		c-0.106-0.1-0.219-0.193-0.327-0.292c-0.129-0.119-0.262-0.235-0.393-0.351c-0.222-0.198-0.438-0.404-0.666-0.596l-0.121-0.087
		h-0.001C43.911,2.587,37.252,0,30,0C13.458,0,0,13.458,0,30c0,4.244,0.891,8.282,2.487,11.945l-0.006,0.01l0.216,0.474
		c0.027,0.06,0.061,0.115,0.088,0.175c0.293,0.63,0.604,1.25,0.939,1.855c0.082,0.149,0.17,0.294,0.254,0.441
		c0.292,0.507,0.596,1.006,0.916,1.494c0.11,0.168,0.218,0.336,0.331,0.502c0.334,0.488,0.685,0.964,1.047,1.431
		c0.151,0.195,0.301,0.389,0.456,0.58c0.292,0.359,0.593,0.71,0.901,1.055l-0.011,0.019l0.501,0.533
		c0.004,0.004,0.007,0.009,0.011,0.013L9.045,51.5l0.017-0.028c2.351,2.295,5.034,4.165,7.941,5.564
		c0.001,0.001,0.002,0.001,0.003,0.002c0.399,0.192,0.803,0.374,1.21,0.548c0.045,0.019,0.089,0.041,0.133,0.06
		c0.327,0.138,0.658,0.265,0.99,0.391c2.219,0.847,4.563,1.434,6.996,1.732l-0.025,0.042l1.615,0.11l0.089,0.006
		c0.173,0.011,0.345,0.027,0.518,0.036l0.009,0.001l0,0c0.096,0.005,0.193,0.004,0.289,0.007C29.241,59.988,29.631,60,30,60
		c0.719,0,1.43-0.034,2.137-0.085c0.15-0.011,0.3-0.021,0.45-0.034c0.708-0.061,1.41-0.141,2.103-0.25
		c0.036-0.006,0.071-0.013,0.107-0.019c0.686-0.111,1.362-0.249,2.032-0.405c0.096-0.023,0.193-0.043,0.289-0.067
		c0.692-0.169,1.375-0.361,2.048-0.577c0.072-0.023,0.142-0.049,0.214-0.073c0.628-0.207,1.247-0.434,1.855-0.681
		c0.079-0.032,0.16-0.062,0.239-0.094c0.621-0.258,1.231-0.538,1.83-0.836c0.149-0.074,0.295-0.151,0.442-0.227
		c0.501-0.259,0.994-0.531,1.478-0.817c0.151-0.089,0.303-0.178,0.453-0.269c0.468-0.288,0.926-0.591,1.377-0.904
		c0.227-0.157,0.451-0.316,0.673-0.479c0.357-0.262,0.706-0.533,1.05-0.81c0.33-0.265,0.652-0.538,0.97-0.817
		c0.229-0.2,0.455-0.403,0.677-0.61c0.258-0.24,0.515-0.48,0.765-0.729c0.35-0.349,0.691-0.708,1.023-1.074
		c0.244-0.269,0.48-0.546,0.714-0.824c0.182-0.215,0.359-0.434,0.534-0.655c0.311-0.39,0.612-0.787,0.904-1.194
		c0.219-0.305,0.436-0.612,0.644-0.926c0.166-0.251,0.33-0.505,0.489-0.762c0.307-0.494,0.604-0.995,0.883-1.508
		c0.086-0.158,0.164-0.321,0.247-0.481c0.257-0.495,0.5-0.997,0.73-1.507c0.06-0.134,0.123-0.266,0.182-0.402
		c0.278-0.642,0.532-1.296,0.765-1.96c0.015-0.042,0.033-0.081,0.048-0.122l0.159-0.462l-0.006-0.009C59.471,36.392,60,33.257,60,30
		z M46,16c-2.206,0-4-1.794-4-4s1.794-4,4-4c0.68,0,1.335,0.182,1.951,0.532c0.236,0.198,0.469,0.4,0.699,0.605
		c0.082,0.074,0.166,0.146,0.247,0.221c0.105,0.097,0.207,0.198,0.31,0.296C49.724,10.355,50,11.162,50,12
		C50,14.206,48.206,16,46,16z M2,30C2,14.561,14.561,2,30,2c5.372,0,10.392,1.523,14.659,4.156c-0.779,0.179-1.499,0.509-2.13,0.958
		L41.05,5.636c-0.391-0.391-1.023-0.391-1.414,0s-0.391,1.024,0,1.414l1.479,1.479C40.6,9.251,40.244,10.091,40.09,11H38
		c-0.553,0-1,0.448-1,1s0.447,1,1,1h2.09c0.154,0.909,0.51,1.749,1.025,2.471l-1.479,1.479c-0.391,0.39-0.391,1.023,0,1.414
		c0.195,0.195,0.451,0.293,0.707,0.293s0.512-0.098,0.707-0.293l1.479-1.479C43.251,17.4,44.091,17.756,45,17.91V20
		c0,0.552,0.447,1,1,1s1-0.448,1-1v-2.09c0.909-0.154,1.749-0.51,2.471-1.024l1.479,1.479c0.195,0.195,0.451,0.293,0.707,0.293
		s0.512-0.098,0.707-0.293c0.391-0.391,0.391-1.024,0-1.414l-1.479-1.479c0.578-0.811,0.962-1.77,1.076-2.81
		C55.737,17.434,58,23.456,58,30c0,2.464-0.323,4.853-0.923,7.13l-9.118-14.029l-5.105,8.657l0,0l-1.324,2.245L30.055,11.938
		L22.593,24.59v0.001l-1.459,2.474l-0.481-0.741v-0.001l-4.694-7.222l-5.451,9.242v0.001L3.765,39.778C2.626,36.732,2,33.438,2,30z
		 M55.369,41.831c-0.248,0.532-0.51,1.054-0.789,1.565c-0.105,0.192-0.218,0.379-0.327,0.569c-0.19,0.329-0.387,0.653-0.589,0.974
		c-0.146,0.23-0.289,0.462-0.442,0.688c-0.271,0.403-0.555,0.796-0.846,1.183c-0.197,0.262-0.402,0.518-0.608,0.773
		c-0.16,0.198-0.324,0.392-0.489,0.585c-0.347,0.405-0.705,0.8-1.074,1.185c-0.18,0.187-0.359,0.375-0.543,0.558
		c-0.233,0.23-0.47,0.456-0.711,0.678c-0.235,0.216-0.476,0.426-0.719,0.634c-0.318,0.273-0.641,0.539-0.971,0.798
		c-0.279,0.219-0.561,0.434-0.848,0.642c-0.202,0.147-0.404,0.293-0.61,0.434c-0.454,0.31-0.914,0.611-1.386,0.895
		c-0.142,0.085-0.287,0.165-0.43,0.248c-0.434,0.251-0.874,0.492-1.322,0.719c-0.117,0.06-0.233,0.122-0.351,0.18
		c-0.559,0.274-1.128,0.531-1.706,0.768c-0.094,0.039-0.189,0.074-0.283,0.112c-0.575,0.228-1.156,0.442-1.747,0.632
		c-0.033,0.011-0.066,0.023-0.099,0.034c-0.626,0.199-1.262,0.374-1.904,0.529c-0.097,0.023-0.195,0.045-0.292,0.068
		c-0.638,0.147-1.281,0.277-1.932,0.38c-0.004,0.001-0.008,0.002-0.012,0.002c-0.643,0.101-1.294,0.173-1.948,0.229
		c-0.142,0.012-0.284,0.023-0.427,0.033C31.315,57.969,30.66,58,30,58c-0.099,0-0.197-0.006-0.296-0.008l14.291-24.234l2.785,4.875
		L50,35.414l3.391,3.391l0.874-2.331l2.036,3.132c-0.221,0.607-0.47,1.198-0.73,1.781C55.504,41.535,55.438,41.684,55.369,41.831z
		 M24.964,57.537c-0.773-0.14-1.537-0.313-2.292-0.517c-0.045-0.012-0.09-0.026-0.136-0.039c-0.751-0.207-1.492-0.442-2.221-0.71
		c-0.02-0.007-0.039-0.016-0.058-0.023c-0.671-0.249-1.329-0.53-1.979-0.83c-0.106-0.049-0.214-0.094-0.318-0.144
		c-0.597-0.285-1.181-0.598-1.757-0.925c-0.171-0.097-0.342-0.193-0.51-0.294c-0.535-0.319-1.059-0.657-1.572-1.012
		c-0.184-0.127-0.365-0.257-0.546-0.388c-0.5-0.363-0.99-0.74-1.467-1.137c-0.162-0.135-0.319-0.276-0.479-0.415
		c-0.476-0.415-0.943-0.841-1.393-1.29c-0.042-0.042-0.082-0.085-0.123-0.126l12.238-20.751l0,0l1.219-2.067l2.093,4.881
		l3.063-3.063l3.376,6.751l2.423-6.059l3.172,1.586l2.636,5.069l-4.836,8.2L27.45,57.877c-0.806-0.073-1.605-0.182-2.395-0.323
		C25.025,57.548,24.994,57.543,24.964,57.537z M7.937,47.209c-0.24-0.307-0.474-0.619-0.701-0.936
		c-0.187-0.261-0.373-0.523-0.551-0.79c-0.133-0.199-0.26-0.402-0.388-0.605C6.122,44.6,5.953,44.32,5.788,44.036
		c-0.102-0.176-0.206-0.352-0.305-0.53c-0.256-0.464-0.503-0.933-0.732-1.411c-0.004-0.009-0.008-0.018-0.012-0.027l7.07-11.99
		l1.084,1.445L15,29.414l2.155,2.155l2.29-3.434L20,28.988l-5.364,9.096L8.701,48.146c-0.068-0.08-0.139-0.158-0.207-0.238
		C8.304,47.678,8.12,47.444,7.937,47.209z M18.259,26.31l-1.414,2.12L15,26.586l-1.892,1.892l-0.2-0.267l3.133-5.313L18.259,26.31z
		 M36.124,27.944l-2.648-1.324l-1.577,3.941l-2.624-5.249l-2.938,2.937l-1.506-3.515l5.114-8.672L36.124,27.944z M52.911,34.391
		l-0.302,0.804L50,32.586l-2.781,2.781l-2.053-3.593l2.875-4.876L52.911,34.391z"/>
</g>
</svg>